<?xml version="1.0" standalone="no"?>
<!DOCTYPE svg PUBLIC "-//W3C//DTD SVG 20010904//EN"
 "http://www.w3.org/TR/2001/REC-SVG-20010904/DTD/svg10.dtd">
<svg version="1.0" xmlns="http://www.w3.org/2000/svg"
 width="2000.000000pt" height="463.000000pt" viewBox="0 0 2000.000000 463.000000"
 preserveAspectRatio="xMidYMid meet">
<g transform="translate(0.000000,463.000000) scale(0.100000,-0.100000)"
fill="#000000" stroke="none">
<path d="M1255 3724 c-199 -42 -315 -161 -351 -362 -21 -118 -20 -1987 1
-2097 39 -204 153 -319 357 -360 116 -23 1970 -23 2086 0 157 32 275 116 331
235 61 132 62 145 58 1217 -3 858 -5 975 -19 1028 -50 185 -141 277 -325 332
-53 16 -140 18 -1063 20 -851 1 -1016 -1 -1075 -13z m1475 -821 c-1 -5 -142
-271 -315 -593 l-313 -585 -112 -3 c-62 -1 -110 1 -108 6 1 5 152 273 333 595
l330 587 93 0 c50 0 92 -3 92 -7z m433 -277 l277 -218 0 -92 -1 -91 -305 -240
c-168 -132 -312 -244 -320 -248 -12 -7 -14 7 -14 80 l0 88 265 204 c146 112
265 207 264 210 0 3 -119 97 -265 209 l-264 203 0 91 0 90 43 -34 c23 -19 167
-132 320 -252z m-1343 187 l-1 -88 -264 -203 -264 -204 27 -22 c15 -12 134
-105 265 -205 l237 -183 0 -90 0 -89 -68 53 c-38 29 -180 141 -315 248 l-248
195 3 95 3 94 305 242 c168 133 308 243 313 243 4 1 7 -38 7 -86z"/>
<path d="M4769 2880 c-148 -23 -268 -99 -352 -219 -134 -194 -100 -504 72
-664 101 -93 221 -137 376 -137 142 0 250 37 345 119 l35 30 -42 42 -42 42
-35 -31 c-123 -108 -325 -123 -473 -36 -275 161 -258 572 31 708 141 67 314
49 432 -45 20 -16 40 -29 43 -29 4 0 24 17 44 38 l37 38 -32 31 c-98 92 -278
138 -439 113z"/>
<path d="M5775 2879 c-218 -33 -383 -184 -426 -387 -17 -84 -7 -243 21 -315
47 -124 163 -236 297 -287 81 -31 252 -39 343 -16 196 50 335 192 375 383 19
86 18 140 0 228 -57 271 -317 440 -610 394z m160 -109 c228 -37 378 -254 331
-479 -27 -130 -96 -220 -213 -278 -208 -103 -454 -21 -556 187 -30 60 -32 72
-32 170 0 102 1 109 38 182 58 118 161 196 289 217 74 12 76 12 143 1z"/>
<path d="M13878 2880 c-125 -20 -232 -100 -258 -195 -17 -62 -8 -164 19 -208
44 -71 137 -116 366 -177 44 -12 100 -31 125 -44 107 -54 120 -170 28 -239
-106 -79 -329 -66 -468 28 -29 19 -55 35 -59 35 -4 0 -17 -20 -29 -44 l-21
-45 32 -27 c78 -66 207 -104 353 -104 171 0 288 51 344 150 21 38 25 58 25
130 0 100 -17 137 -89 188 -53 38 -88 52 -261 98 -71 20 -149 47 -173 61 -96
55 -109 158 -30 229 88 81 269 84 418 9 27 -14 53 -25 58 -25 8 0 42 75 42 93
0 11 -96 56 -154 71 -73 19 -198 27 -268 16z"/>
<path d="M18419 2880 c-276 -43 -459 -276 -436 -555 24 -279 237 -465 532
-465 223 0 385 98 476 287 39 80 43 94 47 187 5 119 -8 192 -49 274 -58 118
-170 213 -293 251 -75 23 -202 32 -277 21z m238 -130 c200 -69 308 -289 244
-498 -56 -185 -216 -292 -420 -280 -135 8 -264 86 -324 196 -88 162 -68 343
51 473 114 124 285 166 449 109z"/>
<path d="M6620 2376 l0 -506 258 0 c198 0 272 4 317 15 229 58 375 245 375
481 0 98 -15 168 -51 243 -57 115 -173 207 -314 249 -37 11 -122 16 -317 19
l-268 5 0 -506z m512 383 c125 -27 229 -107 282 -219 29 -60 31 -73 31 -170 0
-92 -3 -112 -26 -161 -48 -102 -125 -170 -238 -212 -47 -17 -87 -21 -248 -25
l-193 -4 0 401 0 401 170 0 c93 0 193 -5 222 -11z"/>
<path d="M7790 2375 l0 -505 360 0 360 0 0 50 0 50 -300 0 -300 0 0 180 0 180
260 0 260 0 0 50 0 50 -260 0 -260 0 0 170 0 170 290 0 290 0 0 55 0 55 -350
0 -350 0 0 -505z"/>
<path d="M9010 2868 c0 -7 75 -235 166 -506 l167 -493 65 3 64 3 139 404 c76
222 140 406 142 407 1 2 65 -181 142 -406 l140 -410 66 0 65 0 167 498 c92
273 167 500 167 505 0 4 -26 7 -58 7 l-57 0 -140 -415 c-77 -228 -142 -415
-145 -415 -3 0 -68 187 -145 415 l-140 415 -56 0 -57 0 -36 -102 c-20 -57 -85
-245 -145 -418 -60 -173 -112 -308 -115 -300 -3 8 -66 195 -139 415 l-134 400
-61 3 c-46 2 -62 0 -62 -10z"/>
<path d="M10680 2375 l0 -505 360 0 360 0 0 50 0 50 -300 0 -300 0 0 180 0
180 255 0 255 0 0 50 0 50 -255 0 -255 0 0 170 0 170 290 0 290 0 0 55 0 55
-350 0 -350 0 0 -505z"/>
<path d="M11630 2375 l0 -505 340 0 340 0 0 50 0 50 -280 0 -280 0 0 455 0
455 -60 0 -60 0 0 -505z"/>
<path d="M12470 2375 l0 -505 340 0 340 0 0 50 0 50 -280 0 -280 0 0 455 0
455 -60 0 -60 0 0 -505z"/>
<path d="M14390 2825 l0 -55 175 0 175 0 0 -450 0 -450 60 0 60 0 0 450 0 450
175 0 175 0 0 55 0 55 -410 0 -410 0 0 -55z"/>
<path d="M15330 2544 c0 -274 3 -347 16 -397 32 -125 84 -191 191 -244 69 -34
84 -38 176 -41 196 -8 320 48 391 178 51 93 55 135 56 503 l0 338 -57 -3 -58
-3 -5 -350 c-5 -328 -6 -353 -26 -395 -30 -64 -65 -102 -120 -130 -43 -22 -62
-25 -149 -25 -84 0 -106 4 -140 22 -81 44 -123 102 -144 201 -7 33 -11 173
-11 367 l0 315 -60 0 -60 0 0 -336z"/>
<path d="M16460 2376 l0 -506 263 0 c285 0 327 6 435 57 71 34 171 132 206
201 54 107 70 248 41 371 -41 172 -163 299 -345 357 -45 14 -104 18 -327 22
l-273 4 0 -506z m535 379 c84 -22 150 -61 205 -122 69 -76 94 -144 94 -263 1
-86 -2 -101 -30 -160 -52 -110 -113 -165 -229 -210 -53 -20 -82 -24 -252 -28
l-193 -4 0 401 0 401 173 0 c123 0 190 -4 232 -15z"/>
<path d="M17640 2375 l0 -505 60 0 60 0 0 505 0 505 -60 0 -60 0 0 -505z"/>
</g>
</svg>
